# xmcd CD database file
#
# Track frame offsets:
#	150
#	18250
#	35947
#	53389
#	71557
#	88607
#	110832
#	126247
#	146107
#	161962
#	178977
#	197635
#	213502
#	232360
#	253777
#	268647
#
# Disc length: 3799 seconds
#
# Revision: 0
# Processed by: cddbd v1.4PL0 Copyright (c) Steve Scherf et al.
# Submitted via: CDex 1.51
#
DISCID=fe0ed510
DTITLE=Various Artist - Do the Macarena
DYEAR=1999
DGENRE=Salsa
TTITLE0=Macarena
TTITLE1=In the Summertime
TTITLE2=African Rythm
TTITLE3=Oye Como Va
TTITLE4=Ritmo de la Nochie
TTITLE5=Sopa de Caracol
TTITLE6=Lamada
TTITLE7=This is Your Life
TTITLE8=La Cumbia
TTITLE9=Sweat (Alalalalong)
TTITLE10=Oye Mi Canto (Hear My Voice)
TTITLE11=Bamboleo
TTITLE12=Boombastic
TTITLE13=Dancando Lamada
TTITLE14=Brazil
TTITLE15=Soca Dance
EXTD=YEAR: 1999
EXTT0=
EXTT1=
EXTT2=
EXTT3=
EXTT4=
EXTT5=
EXTT6=
EXTT7=
EXTT8=
EXTT9=
EXTT10=
EXTT11=
EXTT12=
EXTT13=
EXTT14=
EXTT15=
PLAYORDER=
